<?xml version="1.0" encoding="utf-8"?>
<!-- Generator: Adobe Illustrator 21.0.2, SVG Export Plug-In . SVG Version: 6.00 Build 0)  -->
<svg version="1.1" id="Layer_1" xmlns="http://www.w3.org/2000/svg" xmlns:xlink="http://www.w3.org/1999/xlink" x="0px" y="0px"
	 viewBox="0 0 576 288" style="enable-background:new 0 0 576 288;" xml:space="preserve">
<style type="text/css">
	.st0{fill:#545554;}
	.st1{fill:#407B79;}
	.st2{fill:#79A3A0;}
</style>
<g>
	<path class="st0" d="M184.6,115.2c-1.9,8.6-3.8,17.7-5.6,27.4c-3.1,0-8.6,0.7-16.7,2.2c-10.3,1.9-17.9,2.8-22.9,2.8
		c-12.2,0-23-2.4-32.2-7.2c-9.2-4.8-16.4-11.7-21.6-20.7c-5.2-9-7.7-19-7.7-30c0-10.8,2.7-20.8,8.2-30c5.4-9.2,13-16.3,22.5-21.4
		c9.6-5.1,20.3-7.6,32.3-7.6c5,0,11.8,0.5,20.3,1.6c6.6,0.9,11.4,1.3,14.4,1.3c0.7,7.5,1.9,16.6,3.7,27.4c0,0.9-0.9,1.3-2.6,1.3
		c-1.1,0-1.7-0.4-1.9-1.3c-1.9-7.3-6.1-13.3-12.5-18c-6.4-4.7-13.7-7.1-22.1-7.1c-12.6,0-23.2,5.2-31.8,15.6
		c-8.6,10.4-12.8,23.2-12.8,38.2c0,14.7,4.2,27.1,12.7,37.4c8.5,10.3,18.8,15.4,31.1,15.4c19.2,0,32.7-9.1,40.7-27.2
		c0.4-0.9,1.1-1.3,2.2-1.3C183.8,113.9,184.6,114.3,184.6,115.2z"/>
	<path class="st0" d="M318.9,95.5c0,1.3-0.4,2.1-1.3,2.2c-6.5,0.8-10.9,2-13.2,3.6c-2.3,1.7-3.5,5-3.5,10v9.5c0,8.3,0.6,14,1.8,17.1
		c-7.1,2.8-14.9,5.2-23.1,7c-8.3,1.8-15.6,2.7-21.9,2.7c-12.2,0-23-2.4-32.2-7.2c-9.2-4.8-16.4-11.7-21.6-20.7c-5.2-9-7.7-19-7.7-30
		c0-11,2.8-21,8.4-30.2c5.6-9.2,13.3-16.3,23.1-21.3c9.8-5,21-7.6,33.4-7.6c4.8,0,11.3,0.9,19.5,2.6c7.2,1.5,12.7,2.3,16.5,2.3
		c0.7,7.5,1.9,16.6,3.7,27.4c0,0.9-0.9,1.3-2.6,1.3c-1.1,0-1.8-0.4-2-1.3c-4.7-18-17.3-27.1-37.7-27.1c-12.6,0-23.2,5.2-31.8,15.6
		c-8.6,10.4-12.9,23.2-12.9,38.2c0,14.7,4.2,27.1,12.7,37.4c8.5,10.3,18.8,15.4,31.1,15.4c18,0,27-4.5,27-13.4v-21.3
		c0-3-1.4-5.1-4.3-6.3c-2.8-1.3-9.7-2.4-20.5-3.5c-0.9,0-1.3-0.8-1.3-2.4c0-1.5,0.4-2.2,1.3-2.2c3.6,0,8.9,0.1,15.9,0.4
		c6.8,0.3,11.8,0.4,15.1,0.4c3.2,0,7.5-0.1,12.8-0.4c5.7-0.3,10.3-0.4,13.9-0.4C318.5,93.3,318.9,94,318.9,95.5z"/>
	<path class="st0" d="M435.4,59.5c0,1-1,1.5-2.9,1.5c-0.9,0-1.4-0.4-1.6-1.1c-2.3-7.6-5.6-12.9-9.9-16.1c-4.3-3.1-10.7-4.7-19.1-4.7
		h-7.6c-2.6,0-4.4,0.4-5.4,1.3c-1,0.9-1.4,2.5-1.4,4.8v81.7c0,3.7,0.5,6.3,1.4,7.9c0.9,1.5,2.6,2.7,5,3.6c2.4,0.9,5.8,1.6,10.3,2.1
		c0.9,0.1,1.3,0.8,1.3,2.2c0,1.5-0.4,2.3-1.3,2.3c-3.6,0-7.9-0.2-12.9-0.5c-4.7-0.3-8.7-0.5-11.9-0.5c-3.3,0-7.3,0.2-12.1,0.5
		c-5,0.3-9.3,0.5-12.9,0.5c-0.9,0-1.3-0.8-1.3-2.3c0-1.3,0.4-2.1,1.3-2.2c6.5-0.8,10.9-2,13.2-3.6c2.3-1.7,3.5-5,3.5-10V45.2
		c0-2.4-0.5-4-1.4-4.8c-1-0.9-2.8-1.3-5.5-1.3H358c-7.6,0-14.4,1.9-20.6,5.8c-6.2,3.8-10.2,8.8-12.1,14.9c-0.3,0.8-0.9,1.2-1.8,1.2
		c-1.8,0-2.7-0.6-2.7-1.8c3-8.1,5.9-17.3,8.5-27.5c7.3,1.5,24,2.3,50.1,2.3c26.8,0,43.9-0.8,51.2-2.3
		C431.3,38.7,432.9,47.9,435.4,59.5z"/>
	<path class="st0" d="M497.1,142.7c0,1.5-0.4,2.3-1.3,2.3c-3.6,0-7.9-0.2-12.8-0.5c-4.7-0.3-8.7-0.5-12-0.5c-3.3,0-7.3,0.2-12,0.5
		c-5,0.3-9.3,0.5-13,0.5c-0.9,0-1.3-0.8-1.3-2.3c0-1.3,0.4-2.1,1.3-2.2c6.5-0.8,10.9-2,13.2-3.6c2.3-1.7,3.5-5,3.5-10V51.1
		c0-3.8-0.5-6.4-1.4-7.9c-0.9-1.5-2.6-2.7-5-3.6c-2.4-0.9-5.8-1.6-10.4-2.1c-0.9,0-1.3-0.7-1.3-2.2c0-1.5,0.4-2.2,1.3-2.2
		c3.7,0,8,0.2,13,0.5c4.7,0.3,8.7,0.5,12,0.5c3.3,0,7.3-0.2,12-0.5c4.9-0.3,9.2-0.5,12.8-0.5c0.9,0,1.3,0.7,1.3,2.2
		c0,1.5-0.4,2.2-1.3,2.2c-4.5,0.5-7.9,1.2-10.3,2.1c-2.4,0.9-4,2.1-4.9,3.6c-0.9,1.5-1.4,4.2-1.4,8v75.8c0,3.7,0.5,6.3,1.4,7.9
		c0.9,1.5,2.5,2.7,4.9,3.6c2.3,0.9,5.8,1.6,10.3,2.1C496.6,140.6,497.1,141.4,497.1,142.7z"/>
</g>
<path class="st1" d="M551.2,195.2c0,0-284.2-83.2-526.3,17.3c0,0,238-67.5,450.2,2.5L551.2,195.2z"/>
<path class="st2" d="M472.3,217.4c0,0-158.3-54.4-327.3-19.4c0,0,163.7-18,291.8,27.3L472.3,217.4z"/>
</svg>
